<mxfile host="app.diagrams.net" modified="2021-08-11T16:49:48.911Z" agent="5.0 (Windows NT 10.0; Win64; x64) AppleWebKit/537.36 (KHTML, like Gecko) Chrome/92.0.4515.131 Safari/537.36" etag="X0MEwHq2xHqlu8-8an_-" version="14.9.6" type="github">
  <diagram id="uVAwzypqDCrce5hk9RU_" name="Page-1">
    <mxGraphModel dx="1426" dy="339" grid="1" gridSize="10" guides="1" tooltips="1" connect="1" arrows="1" fold="1" page="1" pageScale="1" pageWidth="827" pageHeight="1169" math="0" shadow="0">
      <root>
        <mxCell id="0" />
        <mxCell id="1" parent="0" />
        <mxCell id="9dCSC-uNkoXfZWFiJuiw-2" style="edgeStyle=orthogonalEdgeStyle;rounded=0;orthogonalLoop=1;jettySize=auto;html=1;entryX=0;entryY=0.5;entryDx=0;entryDy=0;entryPerimeter=0;" parent="1" source="CanO7BQFnEnzJzBoHXkz-2" target="9dCSC-uNkoXfZWFiJuiw-1" edge="1">
          <mxGeometry relative="1" as="geometry">
            <Array as="points">
              <mxPoint x="480" y="198" />
              <mxPoint x="480" y="198" />
            </Array>
          </mxGeometry>
        </mxCell>
        <mxCell id="CanO7BQFnEnzJzBoHXkz-2" value="&lt;font style=&quot;font-size: 15px&quot;&gt;&lt;b&gt;Redshift&lt;/b&gt;&lt;/font&gt;" style="outlineConnect=0;dashed=0;verticalLabelPosition=bottom;verticalAlign=top;align=center;html=1;shape=mxgraph.aws3.redshift;fillColor=#2E73B8;gradientColor=none;" parent="1" vertex="1">
          <mxGeometry x="346" y="160" width="67.5" height="75" as="geometry" />
        </mxCell>
        <mxCell id="CanO7BQFnEnzJzBoHXkz-6" value="&lt;b&gt;&lt;font style=&quot;font-size: 15px&quot;&gt;Data Source&lt;/font&gt;&lt;/b&gt;" style="html=1;verticalLabelPosition=bottom;align=center;labelBackgroundColor=#ffffff;verticalAlign=top;strokeWidth=2;strokeColor=#0080F0;shadow=0;dashed=0;shape=mxgraph.ios7.icons.data;" parent="1" vertex="1">
          <mxGeometry x="-280" y="60" width="49.48" height="60" as="geometry" />
        </mxCell>
        <mxCell id="9dCSC-uNkoXfZWFiJuiw-18" style="edgeStyle=orthogonalEdgeStyle;rounded=0;orthogonalLoop=1;jettySize=auto;html=1;fontSize=15;" parent="1" source="9dCSC-uNkoXfZWFiJuiw-1" target="9dCSC-uNkoXfZWFiJuiw-17" edge="1">
          <mxGeometry relative="1" as="geometry">
            <Array as="points">
              <mxPoint x="620" y="193" />
              <mxPoint x="620" y="193" />
            </Array>
          </mxGeometry>
        </mxCell>
        <mxCell id="9dCSC-uNkoXfZWFiJuiw-1" value="&lt;font style=&quot;font-size: 15px&quot;&gt;&lt;b&gt;Quicksight&lt;/b&gt;&lt;/font&gt;" style="outlineConnect=0;dashed=0;verticalLabelPosition=bottom;verticalAlign=top;align=center;html=1;shape=mxgraph.aws3.quicksight;fillColor=#00B7F4;gradientColor=none;" parent="1" vertex="1">
          <mxGeometry x="530" y="167.5" width="60" height="60" as="geometry" />
        </mxCell>
        <mxCell id="9dCSC-uNkoXfZWFiJuiw-5" style="edgeStyle=orthogonalEdgeStyle;rounded=0;orthogonalLoop=1;jettySize=auto;html=1;entryX=0;entryY=0.5;entryDx=0;entryDy=0;entryPerimeter=0;" parent="1" source="9dCSC-uNkoXfZWFiJuiw-4" target="CanO7BQFnEnzJzBoHXkz-2" edge="1">
          <mxGeometry relative="1" as="geometry" />
        </mxCell>
        <mxCell id="9dCSC-uNkoXfZWFiJuiw-4" value="&lt;font style=&quot;font-size: 15px&quot;&gt;&lt;b&gt;Data pipeline&lt;/b&gt;&lt;/font&gt;" style="points=[[0,0,0],[0.25,0,0],[0.5,0,0],[0.75,0,0],[1,0,0],[0,1,0],[0.25,1,0],[0.5,1,0],[0.75,1,0],[1,1,0],[0,0.25,0],[0,0.5,0],[0,0.75,0],[1,0.25,0],[1,0.5,0],[1,0.75,0]];outlineConnect=0;fontColor=#232F3E;gradientColor=#945DF2;gradientDirection=north;fillColor=#5A30B5;strokeColor=#ffffff;dashed=0;verticalLabelPosition=top;verticalAlign=bottom;align=center;html=1;fontSize=12;fontStyle=0;aspect=fixed;shape=mxgraph.aws4.resourceIcon;resIcon=mxgraph.aws4.data_pipeline;labelPosition=center;" parent="1" vertex="1">
          <mxGeometry x="160" y="158.5" width="78" height="78" as="geometry" />
        </mxCell>
        <mxCell id="9dCSC-uNkoXfZWFiJuiw-7" style="edgeStyle=orthogonalEdgeStyle;rounded=0;orthogonalLoop=1;jettySize=auto;html=1;" parent="1" source="9dCSC-uNkoXfZWFiJuiw-12" target="9dCSC-uNkoXfZWFiJuiw-4" edge="1">
          <mxGeometry relative="1" as="geometry">
            <mxPoint x="120" y="320" as="sourcePoint" />
            <Array as="points">
              <mxPoint x="199" y="320" />
            </Array>
          </mxGeometry>
        </mxCell>
        <mxCell id="9dCSC-uNkoXfZWFiJuiw-12" value="&lt;font style=&quot;font-size: 15px&quot;&gt;&lt;b&gt;Amazon S3&lt;/b&gt;&lt;/font&gt;" style="outlineConnect=0;dashed=0;verticalLabelPosition=bottom;verticalAlign=top;align=center;html=1;shape=mxgraph.aws3.s3;fillColor=#E05243;gradientColor=none;" parent="1" vertex="1">
          <mxGeometry x="10" y="270" width="76.5" height="93" as="geometry" />
        </mxCell>
        <mxCell id="9dCSC-uNkoXfZWFiJuiw-15" style="edgeStyle=orthogonalEdgeStyle;rounded=0;orthogonalLoop=1;jettySize=auto;html=1;entryX=0;entryY=0.5;entryDx=0;entryDy=0;entryPerimeter=0;fontSize=15;" parent="1" source="9dCSC-uNkoXfZWFiJuiw-14" target="9dCSC-uNkoXfZWFiJuiw-4" edge="1">
          <mxGeometry relative="1" as="geometry">
            <Array as="points">
              <mxPoint x="120" y="81" />
              <mxPoint x="120" y="198" />
            </Array>
          </mxGeometry>
        </mxCell>
        <mxCell id="9dCSC-uNkoXfZWFiJuiw-14" value="&lt;b&gt;Relational Database&lt;/b&gt;" style="outlineConnect=0;fontColor=#232F3E;gradientColor=none;fillColor=#3334B9;strokeColor=none;dashed=0;verticalLabelPosition=bottom;verticalAlign=top;align=center;html=1;fontSize=15;fontStyle=0;aspect=fixed;pointerEvents=1;shape=mxgraph.aws4.rds_instance;" parent="1" vertex="1">
          <mxGeometry y="42" width="78" height="78" as="geometry" />
        </mxCell>
        <mxCell id="9dCSC-uNkoXfZWFiJuiw-17" value="Data engineer" style="shape=image;html=1;verticalAlign=top;verticalLabelPosition=bottom;labelBackgroundColor=#ffffff;imageAspect=0;aspect=fixed;image=https://cdn2.iconfinder.com/data/icons/essential-web-1-1/50/group-customers-team-contacts-family-128.png;fontSize=15;fontStyle=1" parent="1" vertex="1">
          <mxGeometry x="690" y="150" width="86.5" height="86.5" as="geometry" />
        </mxCell>
        <mxCell id="6aO2fSTvK_ncb3qxgh-z-35" value="users" style="shape=table;startSize=30;container=1;collapsible=1;childLayout=tableLayout;fixedRows=1;rowLines=0;fontStyle=1;align=center;resizeLast=1;fontSize=15;fillColor=#dae8fc;strokeColor=#6c8ebf;" vertex="1" parent="1">
          <mxGeometry x="180" y="440" width="180" height="190" as="geometry">
            <mxRectangle x="330" y="460" width="70" height="30" as="alternateBounds" />
          </mxGeometry>
        </mxCell>
        <mxCell id="6aO2fSTvK_ncb3qxgh-z-57" style="shape=partialRectangle;collapsible=0;dropTarget=0;pointerEvents=0;fillColor=none;top=0;left=0;bottom=1;right=0;points=[[0,0.5],[1,0.5]];portConstraint=eastwest;" vertex="1" parent="6aO2fSTvK_ncb3qxgh-z-35">
          <mxGeometry y="30" width="180" height="30" as="geometry" />
        </mxCell>
        <mxCell id="6aO2fSTvK_ncb3qxgh-z-58" value="user_id" style="shape=partialRectangle;connectable=0;fillColor=none;top=0;left=0;bottom=0;right=0;fontStyle=0;overflow=hidden;" vertex="1" parent="6aO2fSTvK_ncb3qxgh-z-57">
          <mxGeometry width="90" height="30" as="geometry" />
        </mxCell>
        <mxCell id="6aO2fSTvK_ncb3qxgh-z-59" value="int" style="shape=partialRectangle;connectable=0;fillColor=none;top=0;left=0;bottom=0;right=0;align=center;spacingLeft=6;fontStyle=0;overflow=hidden;" vertex="1" parent="6aO2fSTvK_ncb3qxgh-z-57">
          <mxGeometry x="90" width="90" height="30" as="geometry" />
        </mxCell>
        <mxCell id="6aO2fSTvK_ncb3qxgh-z-54" style="shape=partialRectangle;collapsible=0;dropTarget=0;pointerEvents=0;fillColor=none;top=0;left=0;bottom=1;right=0;points=[[0,0.5],[1,0.5]];portConstraint=eastwest;" vertex="1" parent="6aO2fSTvK_ncb3qxgh-z-35">
          <mxGeometry y="60" width="180" height="30" as="geometry" />
        </mxCell>
        <mxCell id="6aO2fSTvK_ncb3qxgh-z-55" value="first_name" style="shape=partialRectangle;connectable=0;fillColor=none;top=0;left=0;bottom=0;right=0;fontStyle=0;overflow=hidden;" vertex="1" parent="6aO2fSTvK_ncb3qxgh-z-54">
          <mxGeometry width="90" height="30" as="geometry" />
        </mxCell>
        <mxCell id="6aO2fSTvK_ncb3qxgh-z-56" value="varchar" style="shape=partialRectangle;connectable=0;fillColor=none;top=0;left=0;bottom=0;right=0;align=center;spacingLeft=6;fontStyle=0;overflow=hidden;" vertex="1" parent="6aO2fSTvK_ncb3qxgh-z-54">
          <mxGeometry x="90" width="90" height="30" as="geometry" />
        </mxCell>
        <mxCell id="6aO2fSTvK_ncb3qxgh-z-51" style="shape=partialRectangle;collapsible=0;dropTarget=0;pointerEvents=0;fillColor=none;top=0;left=0;bottom=1;right=0;points=[[0,0.5],[1,0.5]];portConstraint=eastwest;" vertex="1" parent="6aO2fSTvK_ncb3qxgh-z-35">
          <mxGeometry y="90" width="180" height="30" as="geometry" />
        </mxCell>
        <mxCell id="6aO2fSTvK_ncb3qxgh-z-52" value="last_name" style="shape=partialRectangle;connectable=0;fillColor=none;top=0;left=0;bottom=0;right=0;fontStyle=0;overflow=hidden;" vertex="1" parent="6aO2fSTvK_ncb3qxgh-z-51">
          <mxGeometry width="90" height="30" as="geometry" />
        </mxCell>
        <mxCell id="6aO2fSTvK_ncb3qxgh-z-53" value="varchar" style="shape=partialRectangle;connectable=0;fillColor=none;top=0;left=0;bottom=0;right=0;align=center;spacingLeft=6;fontStyle=0;overflow=hidden;" vertex="1" parent="6aO2fSTvK_ncb3qxgh-z-51">
          <mxGeometry x="90" width="90" height="30" as="geometry" />
        </mxCell>
        <mxCell id="6aO2fSTvK_ncb3qxgh-z-48" style="shape=partialRectangle;collapsible=0;dropTarget=0;pointerEvents=0;fillColor=none;top=0;left=0;bottom=1;right=0;points=[[0,0.5],[1,0.5]];portConstraint=eastwest;" vertex="1" parent="6aO2fSTvK_ncb3qxgh-z-35">
          <mxGeometry y="120" width="180" height="30" as="geometry" />
        </mxCell>
        <mxCell id="6aO2fSTvK_ncb3qxgh-z-49" value="gender" style="shape=partialRectangle;connectable=0;fillColor=none;top=0;left=0;bottom=0;right=0;fontStyle=0;overflow=hidden;" vertex="1" parent="6aO2fSTvK_ncb3qxgh-z-48">
          <mxGeometry width="90" height="30" as="geometry" />
        </mxCell>
        <mxCell id="6aO2fSTvK_ncb3qxgh-z-50" value="varchar" style="shape=partialRectangle;connectable=0;fillColor=none;top=0;left=0;bottom=0;right=0;align=center;spacingLeft=6;fontStyle=0;overflow=hidden;" vertex="1" parent="6aO2fSTvK_ncb3qxgh-z-48">
          <mxGeometry x="90" width="90" height="30" as="geometry" />
        </mxCell>
        <mxCell id="6aO2fSTvK_ncb3qxgh-z-36" value="" style="shape=partialRectangle;collapsible=0;dropTarget=0;pointerEvents=0;fillColor=none;top=0;left=0;bottom=1;right=0;points=[[0,0.5],[1,0.5]];portConstraint=eastwest;" vertex="1" parent="6aO2fSTvK_ncb3qxgh-z-35">
          <mxGeometry y="150" width="180" height="30" as="geometry" />
        </mxCell>
        <mxCell id="6aO2fSTvK_ncb3qxgh-z-37" value="level" style="shape=partialRectangle;connectable=0;fillColor=none;top=0;left=0;bottom=0;right=0;fontStyle=0;overflow=hidden;" vertex="1" parent="6aO2fSTvK_ncb3qxgh-z-36">
          <mxGeometry width="90" height="30" as="geometry" />
        </mxCell>
        <mxCell id="6aO2fSTvK_ncb3qxgh-z-38" value="varchar" style="shape=partialRectangle;connectable=0;fillColor=none;top=0;left=0;bottom=0;right=0;align=center;spacingLeft=6;fontStyle=0;overflow=hidden;" vertex="1" parent="6aO2fSTvK_ncb3qxgh-z-36">
          <mxGeometry x="90" width="90" height="30" as="geometry" />
        </mxCell>
        <mxCell id="6aO2fSTvK_ncb3qxgh-z-60" value="songs" style="shape=table;startSize=30;container=1;collapsible=1;childLayout=tableLayout;fixedRows=1;rowLines=0;fontStyle=1;align=center;resizeLast=1;fontSize=15;fillColor=#dae8fc;strokeColor=#6c8ebf;" vertex="1" parent="1">
          <mxGeometry x="180" y="680" width="180" height="190" as="geometry">
            <mxRectangle x="330" y="460" width="70" height="30" as="alternateBounds" />
          </mxGeometry>
        </mxCell>
        <mxCell id="6aO2fSTvK_ncb3qxgh-z-61" style="shape=partialRectangle;collapsible=0;dropTarget=0;pointerEvents=0;fillColor=none;top=0;left=0;bottom=1;right=0;points=[[0,0.5],[1,0.5]];portConstraint=eastwest;" vertex="1" parent="6aO2fSTvK_ncb3qxgh-z-60">
          <mxGeometry y="30" width="180" height="30" as="geometry" />
        </mxCell>
        <mxCell id="6aO2fSTvK_ncb3qxgh-z-62" value="song_id" style="shape=partialRectangle;connectable=0;fillColor=none;top=0;left=0;bottom=0;right=0;fontStyle=0;overflow=hidden;" vertex="1" parent="6aO2fSTvK_ncb3qxgh-z-61">
          <mxGeometry width="90" height="30" as="geometry" />
        </mxCell>
        <mxCell id="6aO2fSTvK_ncb3qxgh-z-63" value="varchar" style="shape=partialRectangle;connectable=0;fillColor=none;top=0;left=0;bottom=0;right=0;align=center;spacingLeft=6;fontStyle=0;overflow=hidden;" vertex="1" parent="6aO2fSTvK_ncb3qxgh-z-61">
          <mxGeometry x="90" width="90" height="30" as="geometry" />
        </mxCell>
        <mxCell id="6aO2fSTvK_ncb3qxgh-z-64" style="shape=partialRectangle;collapsible=0;dropTarget=0;pointerEvents=0;fillColor=none;top=0;left=0;bottom=1;right=0;points=[[0,0.5],[1,0.5]];portConstraint=eastwest;" vertex="1" parent="6aO2fSTvK_ncb3qxgh-z-60">
          <mxGeometry y="60" width="180" height="30" as="geometry" />
        </mxCell>
        <mxCell id="6aO2fSTvK_ncb3qxgh-z-65" value="title" style="shape=partialRectangle;connectable=0;fillColor=none;top=0;left=0;bottom=0;right=0;fontStyle=0;overflow=hidden;" vertex="1" parent="6aO2fSTvK_ncb3qxgh-z-64">
          <mxGeometry width="90" height="30" as="geometry" />
        </mxCell>
        <mxCell id="6aO2fSTvK_ncb3qxgh-z-66" value="varchar" style="shape=partialRectangle;connectable=0;fillColor=none;top=0;left=0;bottom=0;right=0;align=center;spacingLeft=6;fontStyle=0;overflow=hidden;" vertex="1" parent="6aO2fSTvK_ncb3qxgh-z-64">
          <mxGeometry x="90" width="90" height="30" as="geometry" />
        </mxCell>
        <mxCell id="6aO2fSTvK_ncb3qxgh-z-67" style="shape=partialRectangle;collapsible=0;dropTarget=0;pointerEvents=0;fillColor=none;top=0;left=0;bottom=1;right=0;points=[[0,0.5],[1,0.5]];portConstraint=eastwest;" vertex="1" parent="6aO2fSTvK_ncb3qxgh-z-60">
          <mxGeometry y="90" width="180" height="30" as="geometry" />
        </mxCell>
        <mxCell id="6aO2fSTvK_ncb3qxgh-z-68" value="artist_id" style="shape=partialRectangle;connectable=0;fillColor=none;top=0;left=0;bottom=0;right=0;fontStyle=0;overflow=hidden;" vertex="1" parent="6aO2fSTvK_ncb3qxgh-z-67">
          <mxGeometry width="90" height="30" as="geometry" />
        </mxCell>
        <mxCell id="6aO2fSTvK_ncb3qxgh-z-69" value="varchar" style="shape=partialRectangle;connectable=0;fillColor=none;top=0;left=0;bottom=0;right=0;align=center;spacingLeft=6;fontStyle=0;overflow=hidden;" vertex="1" parent="6aO2fSTvK_ncb3qxgh-z-67">
          <mxGeometry x="90" width="90" height="30" as="geometry" />
        </mxCell>
        <mxCell id="6aO2fSTvK_ncb3qxgh-z-70" style="shape=partialRectangle;collapsible=0;dropTarget=0;pointerEvents=0;fillColor=none;top=0;left=0;bottom=1;right=0;points=[[0,0.5],[1,0.5]];portConstraint=eastwest;" vertex="1" parent="6aO2fSTvK_ncb3qxgh-z-60">
          <mxGeometry y="120" width="180" height="30" as="geometry" />
        </mxCell>
        <mxCell id="6aO2fSTvK_ncb3qxgh-z-71" value="year" style="shape=partialRectangle;connectable=0;fillColor=none;top=0;left=0;bottom=0;right=0;fontStyle=0;overflow=hidden;" vertex="1" parent="6aO2fSTvK_ncb3qxgh-z-70">
          <mxGeometry width="90" height="30" as="geometry" />
        </mxCell>
        <mxCell id="6aO2fSTvK_ncb3qxgh-z-72" value="varchar" style="shape=partialRectangle;connectable=0;fillColor=none;top=0;left=0;bottom=0;right=0;align=center;spacingLeft=6;fontStyle=0;overflow=hidden;" vertex="1" parent="6aO2fSTvK_ncb3qxgh-z-70">
          <mxGeometry x="90" width="90" height="30" as="geometry" />
        </mxCell>
        <mxCell id="6aO2fSTvK_ncb3qxgh-z-73" value="" style="shape=partialRectangle;collapsible=0;dropTarget=0;pointerEvents=0;fillColor=none;top=0;left=0;bottom=1;right=0;points=[[0,0.5],[1,0.5]];portConstraint=eastwest;" vertex="1" parent="6aO2fSTvK_ncb3qxgh-z-60">
          <mxGeometry y="150" width="180" height="30" as="geometry" />
        </mxCell>
        <mxCell id="6aO2fSTvK_ncb3qxgh-z-74" value="duration" style="shape=partialRectangle;connectable=0;fillColor=none;top=0;left=0;bottom=0;right=0;fontStyle=0;overflow=hidden;" vertex="1" parent="6aO2fSTvK_ncb3qxgh-z-73">
          <mxGeometry width="90" height="30" as="geometry" />
        </mxCell>
        <mxCell id="6aO2fSTvK_ncb3qxgh-z-75" value="varchar" style="shape=partialRectangle;connectable=0;fillColor=none;top=0;left=0;bottom=0;right=0;align=center;spacingLeft=6;fontStyle=0;overflow=hidden;" vertex="1" parent="6aO2fSTvK_ncb3qxgh-z-73">
          <mxGeometry x="90" width="90" height="30" as="geometry" />
        </mxCell>
        <mxCell id="6aO2fSTvK_ncb3qxgh-z-76" value="time" style="shape=table;startSize=30;container=1;collapsible=1;childLayout=tableLayout;fixedRows=1;rowLines=0;fontStyle=1;align=center;resizeLast=1;fontSize=15;fillColor=#dae8fc;strokeColor=#6c8ebf;" vertex="1" parent="1">
          <mxGeometry x="680" y="440" width="180" height="250" as="geometry">
            <mxRectangle x="330" y="460" width="70" height="30" as="alternateBounds" />
          </mxGeometry>
        </mxCell>
        <mxCell id="6aO2fSTvK_ncb3qxgh-z-77" style="shape=partialRectangle;collapsible=0;dropTarget=0;pointerEvents=0;fillColor=none;top=0;left=0;bottom=1;right=0;points=[[0,0.5],[1,0.5]];portConstraint=eastwest;" vertex="1" parent="6aO2fSTvK_ncb3qxgh-z-76">
          <mxGeometry y="30" width="180" height="30" as="geometry" />
        </mxCell>
        <mxCell id="6aO2fSTvK_ncb3qxgh-z-78" value="start_time" style="shape=partialRectangle;connectable=0;fillColor=none;top=0;left=0;bottom=0;right=0;fontStyle=0;overflow=hidden;" vertex="1" parent="6aO2fSTvK_ncb3qxgh-z-77">
          <mxGeometry width="90" height="30" as="geometry" />
        </mxCell>
        <mxCell id="6aO2fSTvK_ncb3qxgh-z-79" value="bigint" style="shape=partialRectangle;connectable=0;fillColor=none;top=0;left=0;bottom=0;right=0;align=center;spacingLeft=6;fontStyle=0;overflow=hidden;" vertex="1" parent="6aO2fSTvK_ncb3qxgh-z-77">
          <mxGeometry x="90" width="90" height="30" as="geometry" />
        </mxCell>
        <mxCell id="6aO2fSTvK_ncb3qxgh-z-80" style="shape=partialRectangle;collapsible=0;dropTarget=0;pointerEvents=0;fillColor=none;top=0;left=0;bottom=1;right=0;points=[[0,0.5],[1,0.5]];portConstraint=eastwest;" vertex="1" parent="6aO2fSTvK_ncb3qxgh-z-76">
          <mxGeometry y="60" width="180" height="30" as="geometry" />
        </mxCell>
        <mxCell id="6aO2fSTvK_ncb3qxgh-z-81" value="hour" style="shape=partialRectangle;connectable=0;fillColor=none;top=0;left=0;bottom=0;right=0;fontStyle=0;overflow=hidden;" vertex="1" parent="6aO2fSTvK_ncb3qxgh-z-80">
          <mxGeometry width="90" height="30" as="geometry" />
        </mxCell>
        <mxCell id="6aO2fSTvK_ncb3qxgh-z-82" value="int" style="shape=partialRectangle;connectable=0;fillColor=none;top=0;left=0;bottom=0;right=0;align=center;spacingLeft=6;fontStyle=0;overflow=hidden;" vertex="1" parent="6aO2fSTvK_ncb3qxgh-z-80">
          <mxGeometry x="90" width="90" height="30" as="geometry" />
        </mxCell>
        <mxCell id="6aO2fSTvK_ncb3qxgh-z-83" style="shape=partialRectangle;collapsible=0;dropTarget=0;pointerEvents=0;fillColor=none;top=0;left=0;bottom=1;right=0;points=[[0,0.5],[1,0.5]];portConstraint=eastwest;" vertex="1" parent="6aO2fSTvK_ncb3qxgh-z-76">
          <mxGeometry y="90" width="180" height="30" as="geometry" />
        </mxCell>
        <mxCell id="6aO2fSTvK_ncb3qxgh-z-84" value="day" style="shape=partialRectangle;connectable=0;fillColor=none;top=0;left=0;bottom=0;right=0;fontStyle=0;overflow=hidden;" vertex="1" parent="6aO2fSTvK_ncb3qxgh-z-83">
          <mxGeometry width="90" height="30" as="geometry" />
        </mxCell>
        <mxCell id="6aO2fSTvK_ncb3qxgh-z-85" value="int" style="shape=partialRectangle;connectable=0;fillColor=none;top=0;left=0;bottom=0;right=0;align=center;spacingLeft=6;fontStyle=0;overflow=hidden;" vertex="1" parent="6aO2fSTvK_ncb3qxgh-z-83">
          <mxGeometry x="90" width="90" height="30" as="geometry" />
        </mxCell>
        <mxCell id="6aO2fSTvK_ncb3qxgh-z-86" style="shape=partialRectangle;collapsible=0;dropTarget=0;pointerEvents=0;fillColor=none;top=0;left=0;bottom=1;right=0;points=[[0,0.5],[1,0.5]];portConstraint=eastwest;" vertex="1" parent="6aO2fSTvK_ncb3qxgh-z-76">
          <mxGeometry y="120" width="180" height="30" as="geometry" />
        </mxCell>
        <mxCell id="6aO2fSTvK_ncb3qxgh-z-87" value="week" style="shape=partialRectangle;connectable=0;fillColor=none;top=0;left=0;bottom=0;right=0;fontStyle=0;overflow=hidden;" vertex="1" parent="6aO2fSTvK_ncb3qxgh-z-86">
          <mxGeometry width="90" height="30" as="geometry" />
        </mxCell>
        <mxCell id="6aO2fSTvK_ncb3qxgh-z-88" value="int" style="shape=partialRectangle;connectable=0;fillColor=none;top=0;left=0;bottom=0;right=0;align=center;spacingLeft=6;fontStyle=0;overflow=hidden;" vertex="1" parent="6aO2fSTvK_ncb3qxgh-z-86">
          <mxGeometry x="90" width="90" height="30" as="geometry" />
        </mxCell>
        <mxCell id="6aO2fSTvK_ncb3qxgh-z-89" value="" style="shape=partialRectangle;collapsible=0;dropTarget=0;pointerEvents=0;fillColor=none;top=0;left=0;bottom=1;right=0;points=[[0,0.5],[1,0.5]];portConstraint=eastwest;" vertex="1" parent="6aO2fSTvK_ncb3qxgh-z-76">
          <mxGeometry y="150" width="180" height="30" as="geometry" />
        </mxCell>
        <mxCell id="6aO2fSTvK_ncb3qxgh-z-90" value="month" style="shape=partialRectangle;connectable=0;fillColor=none;top=0;left=0;bottom=0;right=0;fontStyle=0;overflow=hidden;" vertex="1" parent="6aO2fSTvK_ncb3qxgh-z-89">
          <mxGeometry width="90" height="30" as="geometry" />
        </mxCell>
        <mxCell id="6aO2fSTvK_ncb3qxgh-z-91" value="int" style="shape=partialRectangle;connectable=0;fillColor=none;top=0;left=0;bottom=0;right=0;align=center;spacingLeft=6;fontStyle=0;overflow=hidden;" vertex="1" parent="6aO2fSTvK_ncb3qxgh-z-89">
          <mxGeometry x="90" width="90" height="30" as="geometry" />
        </mxCell>
        <mxCell id="6aO2fSTvK_ncb3qxgh-z-92" style="shape=partialRectangle;collapsible=0;dropTarget=0;pointerEvents=0;fillColor=none;top=0;left=0;bottom=1;right=0;points=[[0,0.5],[1,0.5]];portConstraint=eastwest;" vertex="1" parent="6aO2fSTvK_ncb3qxgh-z-76">
          <mxGeometry y="180" width="180" height="30" as="geometry" />
        </mxCell>
        <mxCell id="6aO2fSTvK_ncb3qxgh-z-93" value="year" style="shape=partialRectangle;connectable=0;fillColor=none;top=0;left=0;bottom=0;right=0;fontStyle=0;overflow=hidden;" vertex="1" parent="6aO2fSTvK_ncb3qxgh-z-92">
          <mxGeometry width="90" height="30" as="geometry" />
        </mxCell>
        <mxCell id="6aO2fSTvK_ncb3qxgh-z-94" value="int" style="shape=partialRectangle;connectable=0;fillColor=none;top=0;left=0;bottom=0;right=0;align=center;spacingLeft=6;fontStyle=0;overflow=hidden;" vertex="1" parent="6aO2fSTvK_ncb3qxgh-z-92">
          <mxGeometry x="90" width="90" height="30" as="geometry" />
        </mxCell>
        <mxCell id="6aO2fSTvK_ncb3qxgh-z-95" style="shape=partialRectangle;collapsible=0;dropTarget=0;pointerEvents=0;fillColor=none;top=0;left=0;bottom=1;right=0;points=[[0,0.5],[1,0.5]];portConstraint=eastwest;" vertex="1" parent="6aO2fSTvK_ncb3qxgh-z-76">
          <mxGeometry y="210" width="180" height="30" as="geometry" />
        </mxCell>
        <mxCell id="6aO2fSTvK_ncb3qxgh-z-96" value="weekday" style="shape=partialRectangle;connectable=0;fillColor=none;top=0;left=0;bottom=0;right=0;fontStyle=0;overflow=hidden;" vertex="1" parent="6aO2fSTvK_ncb3qxgh-z-95">
          <mxGeometry width="90" height="30" as="geometry" />
        </mxCell>
        <mxCell id="6aO2fSTvK_ncb3qxgh-z-97" value="int" style="shape=partialRectangle;connectable=0;fillColor=none;top=0;left=0;bottom=0;right=0;align=center;spacingLeft=6;fontStyle=0;overflow=hidden;" vertex="1" parent="6aO2fSTvK_ncb3qxgh-z-95">
          <mxGeometry x="90" width="90" height="30" as="geometry" />
        </mxCell>
        <mxCell id="6aO2fSTvK_ncb3qxgh-z-98" value="artists" style="shape=table;startSize=30;container=1;collapsible=1;childLayout=tableLayout;fixedRows=1;rowLines=0;fontStyle=1;align=center;resizeLast=1;fontSize=15;fillColor=#dae8fc;strokeColor=#6c8ebf;" vertex="1" parent="1">
          <mxGeometry x="680" y="720" width="180" height="190" as="geometry">
            <mxRectangle x="330" y="460" width="70" height="30" as="alternateBounds" />
          </mxGeometry>
        </mxCell>
        <mxCell id="6aO2fSTvK_ncb3qxgh-z-99" style="shape=partialRectangle;collapsible=0;dropTarget=0;pointerEvents=0;fillColor=none;top=0;left=0;bottom=1;right=0;points=[[0,0.5],[1,0.5]];portConstraint=eastwest;" vertex="1" parent="6aO2fSTvK_ncb3qxgh-z-98">
          <mxGeometry y="30" width="180" height="30" as="geometry" />
        </mxCell>
        <mxCell id="6aO2fSTvK_ncb3qxgh-z-100" value="artist_id" style="shape=partialRectangle;connectable=0;fillColor=none;top=0;left=0;bottom=0;right=0;fontStyle=0;overflow=hidden;" vertex="1" parent="6aO2fSTvK_ncb3qxgh-z-99">
          <mxGeometry width="90" height="30" as="geometry" />
        </mxCell>
        <mxCell id="6aO2fSTvK_ncb3qxgh-z-101" value="varchar" style="shape=partialRectangle;connectable=0;fillColor=none;top=0;left=0;bottom=0;right=0;align=center;spacingLeft=6;fontStyle=0;overflow=hidden;" vertex="1" parent="6aO2fSTvK_ncb3qxgh-z-99">
          <mxGeometry x="90" width="90" height="30" as="geometry" />
        </mxCell>
        <mxCell id="6aO2fSTvK_ncb3qxgh-z-102" style="shape=partialRectangle;collapsible=0;dropTarget=0;pointerEvents=0;fillColor=none;top=0;left=0;bottom=1;right=0;points=[[0,0.5],[1,0.5]];portConstraint=eastwest;" vertex="1" parent="6aO2fSTvK_ncb3qxgh-z-98">
          <mxGeometry y="60" width="180" height="30" as="geometry" />
        </mxCell>
        <mxCell id="6aO2fSTvK_ncb3qxgh-z-103" value="name" style="shape=partialRectangle;connectable=0;fillColor=none;top=0;left=0;bottom=0;right=0;fontStyle=0;overflow=hidden;" vertex="1" parent="6aO2fSTvK_ncb3qxgh-z-102">
          <mxGeometry width="90" height="30" as="geometry" />
        </mxCell>
        <mxCell id="6aO2fSTvK_ncb3qxgh-z-104" value="varchar" style="shape=partialRectangle;connectable=0;fillColor=none;top=0;left=0;bottom=0;right=0;align=center;spacingLeft=6;fontStyle=0;overflow=hidden;" vertex="1" parent="6aO2fSTvK_ncb3qxgh-z-102">
          <mxGeometry x="90" width="90" height="30" as="geometry" />
        </mxCell>
        <mxCell id="6aO2fSTvK_ncb3qxgh-z-105" style="shape=partialRectangle;collapsible=0;dropTarget=0;pointerEvents=0;fillColor=none;top=0;left=0;bottom=1;right=0;points=[[0,0.5],[1,0.5]];portConstraint=eastwest;" vertex="1" parent="6aO2fSTvK_ncb3qxgh-z-98">
          <mxGeometry y="90" width="180" height="30" as="geometry" />
        </mxCell>
        <mxCell id="6aO2fSTvK_ncb3qxgh-z-106" value="location" style="shape=partialRectangle;connectable=0;fillColor=none;top=0;left=0;bottom=0;right=0;fontStyle=0;overflow=hidden;" vertex="1" parent="6aO2fSTvK_ncb3qxgh-z-105">
          <mxGeometry width="90" height="30" as="geometry" />
        </mxCell>
        <mxCell id="6aO2fSTvK_ncb3qxgh-z-107" value="varchar" style="shape=partialRectangle;connectable=0;fillColor=none;top=0;left=0;bottom=0;right=0;align=center;spacingLeft=6;fontStyle=0;overflow=hidden;" vertex="1" parent="6aO2fSTvK_ncb3qxgh-z-105">
          <mxGeometry x="90" width="90" height="30" as="geometry" />
        </mxCell>
        <mxCell id="6aO2fSTvK_ncb3qxgh-z-108" style="shape=partialRectangle;collapsible=0;dropTarget=0;pointerEvents=0;fillColor=none;top=0;left=0;bottom=1;right=0;points=[[0,0.5],[1,0.5]];portConstraint=eastwest;" vertex="1" parent="6aO2fSTvK_ncb3qxgh-z-98">
          <mxGeometry y="120" width="180" height="30" as="geometry" />
        </mxCell>
        <mxCell id="6aO2fSTvK_ncb3qxgh-z-109" value="latitude" style="shape=partialRectangle;connectable=0;fillColor=none;top=0;left=0;bottom=0;right=0;fontStyle=0;overflow=hidden;" vertex="1" parent="6aO2fSTvK_ncb3qxgh-z-108">
          <mxGeometry width="90" height="30" as="geometry" />
        </mxCell>
        <mxCell id="6aO2fSTvK_ncb3qxgh-z-110" value="float" style="shape=partialRectangle;connectable=0;fillColor=none;top=0;left=0;bottom=0;right=0;align=center;spacingLeft=6;fontStyle=0;overflow=hidden;" vertex="1" parent="6aO2fSTvK_ncb3qxgh-z-108">
          <mxGeometry x="90" width="90" height="30" as="geometry" />
        </mxCell>
        <mxCell id="6aO2fSTvK_ncb3qxgh-z-111" value="" style="shape=partialRectangle;collapsible=0;dropTarget=0;pointerEvents=0;fillColor=none;top=0;left=0;bottom=1;right=0;points=[[0,0.5],[1,0.5]];portConstraint=eastwest;" vertex="1" parent="6aO2fSTvK_ncb3qxgh-z-98">
          <mxGeometry y="150" width="180" height="30" as="geometry" />
        </mxCell>
        <mxCell id="6aO2fSTvK_ncb3qxgh-z-112" value="longitude" style="shape=partialRectangle;connectable=0;fillColor=none;top=0;left=0;bottom=0;right=0;fontStyle=0;overflow=hidden;" vertex="1" parent="6aO2fSTvK_ncb3qxgh-z-111">
          <mxGeometry width="90" height="30" as="geometry" />
        </mxCell>
        <mxCell id="6aO2fSTvK_ncb3qxgh-z-113" value="float" style="shape=partialRectangle;connectable=0;fillColor=none;top=0;left=0;bottom=0;right=0;align=center;spacingLeft=6;fontStyle=0;overflow=hidden;" vertex="1" parent="6aO2fSTvK_ncb3qxgh-z-111">
          <mxGeometry x="90" width="90" height="30" as="geometry" />
        </mxCell>
        <mxCell id="6aO2fSTvK_ncb3qxgh-z-114" value="songplays" style="shape=table;startSize=30;container=1;collapsible=1;childLayout=tableLayout;fixedRows=1;rowLines=0;fontStyle=1;align=center;resizeLast=1;fontSize=15;fillColor=#dae8fc;strokeColor=#6c8ebf;" vertex="1" parent="1">
          <mxGeometry x="440" y="570" width="180" height="310" as="geometry">
            <mxRectangle x="330" y="460" width="70" height="30" as="alternateBounds" />
          </mxGeometry>
        </mxCell>
        <mxCell id="6aO2fSTvK_ncb3qxgh-z-115" style="shape=partialRectangle;collapsible=0;dropTarget=0;pointerEvents=0;fillColor=none;top=0;left=0;bottom=1;right=0;points=[[0,0.5],[1,0.5]];portConstraint=eastwest;" vertex="1" parent="6aO2fSTvK_ncb3qxgh-z-114">
          <mxGeometry y="30" width="180" height="30" as="geometry" />
        </mxCell>
        <mxCell id="6aO2fSTvK_ncb3qxgh-z-116" value="songplay_id" style="shape=partialRectangle;connectable=0;fillColor=none;top=0;left=0;bottom=0;right=0;fontStyle=0;overflow=hidden;" vertex="1" parent="6aO2fSTvK_ncb3qxgh-z-115">
          <mxGeometry width="90" height="30" as="geometry" />
        </mxCell>
        <mxCell id="6aO2fSTvK_ncb3qxgh-z-117" value="int" style="shape=partialRectangle;connectable=0;fillColor=none;top=0;left=0;bottom=0;right=0;align=center;spacingLeft=6;fontStyle=0;overflow=hidden;" vertex="1" parent="6aO2fSTvK_ncb3qxgh-z-115">
          <mxGeometry x="90" width="90" height="30" as="geometry" />
        </mxCell>
        <mxCell id="6aO2fSTvK_ncb3qxgh-z-118" style="shape=partialRectangle;collapsible=0;dropTarget=0;pointerEvents=0;fillColor=none;top=0;left=0;bottom=1;right=0;points=[[0,0.5],[1,0.5]];portConstraint=eastwest;" vertex="1" parent="6aO2fSTvK_ncb3qxgh-z-114">
          <mxGeometry y="60" width="180" height="30" as="geometry" />
        </mxCell>
        <mxCell id="6aO2fSTvK_ncb3qxgh-z-119" value="start_time" style="shape=partialRectangle;connectable=0;fillColor=none;top=0;left=0;bottom=0;right=0;fontStyle=0;overflow=hidden;" vertex="1" parent="6aO2fSTvK_ncb3qxgh-z-118">
          <mxGeometry width="90" height="30" as="geometry" />
        </mxCell>
        <mxCell id="6aO2fSTvK_ncb3qxgh-z-120" value="bigint" style="shape=partialRectangle;connectable=0;fillColor=none;top=0;left=0;bottom=0;right=0;align=center;spacingLeft=6;fontStyle=0;overflow=hidden;" vertex="1" parent="6aO2fSTvK_ncb3qxgh-z-118">
          <mxGeometry x="90" width="90" height="30" as="geometry" />
        </mxCell>
        <mxCell id="6aO2fSTvK_ncb3qxgh-z-121" style="shape=partialRectangle;collapsible=0;dropTarget=0;pointerEvents=0;fillColor=none;top=0;left=0;bottom=1;right=0;points=[[0,0.5],[1,0.5]];portConstraint=eastwest;" vertex="1" parent="6aO2fSTvK_ncb3qxgh-z-114">
          <mxGeometry y="90" width="180" height="30" as="geometry" />
        </mxCell>
        <mxCell id="6aO2fSTvK_ncb3qxgh-z-122" value="user_id" style="shape=partialRectangle;connectable=0;fillColor=none;top=0;left=0;bottom=0;right=0;fontStyle=0;overflow=hidden;" vertex="1" parent="6aO2fSTvK_ncb3qxgh-z-121">
          <mxGeometry width="90" height="30" as="geometry" />
        </mxCell>
        <mxCell id="6aO2fSTvK_ncb3qxgh-z-123" value="int" style="shape=partialRectangle;connectable=0;fillColor=none;top=0;left=0;bottom=0;right=0;align=center;spacingLeft=6;fontStyle=0;overflow=hidden;" vertex="1" parent="6aO2fSTvK_ncb3qxgh-z-121">
          <mxGeometry x="90" width="90" height="30" as="geometry" />
        </mxCell>
        <mxCell id="6aO2fSTvK_ncb3qxgh-z-124" style="shape=partialRectangle;collapsible=0;dropTarget=0;pointerEvents=0;fillColor=none;top=0;left=0;bottom=1;right=0;points=[[0,0.5],[1,0.5]];portConstraint=eastwest;" vertex="1" parent="6aO2fSTvK_ncb3qxgh-z-114">
          <mxGeometry y="120" width="180" height="30" as="geometry" />
        </mxCell>
        <mxCell id="6aO2fSTvK_ncb3qxgh-z-125" value="level" style="shape=partialRectangle;connectable=0;fillColor=none;top=0;left=0;bottom=0;right=0;fontStyle=0;overflow=hidden;" vertex="1" parent="6aO2fSTvK_ncb3qxgh-z-124">
          <mxGeometry width="90" height="30" as="geometry" />
        </mxCell>
        <mxCell id="6aO2fSTvK_ncb3qxgh-z-126" value="varchar" style="shape=partialRectangle;connectable=0;fillColor=none;top=0;left=0;bottom=0;right=0;align=center;spacingLeft=6;fontStyle=0;overflow=hidden;" vertex="1" parent="6aO2fSTvK_ncb3qxgh-z-124">
          <mxGeometry x="90" width="90" height="30" as="geometry" />
        </mxCell>
        <mxCell id="6aO2fSTvK_ncb3qxgh-z-127" value="" style="shape=partialRectangle;collapsible=0;dropTarget=0;pointerEvents=0;fillColor=none;top=0;left=0;bottom=1;right=0;points=[[0,0.5],[1,0.5]];portConstraint=eastwest;" vertex="1" parent="6aO2fSTvK_ncb3qxgh-z-114">
          <mxGeometry y="150" width="180" height="30" as="geometry" />
        </mxCell>
        <mxCell id="6aO2fSTvK_ncb3qxgh-z-128" value="song_id" style="shape=partialRectangle;connectable=0;fillColor=none;top=0;left=0;bottom=0;right=0;fontStyle=0;overflow=hidden;" vertex="1" parent="6aO2fSTvK_ncb3qxgh-z-127">
          <mxGeometry width="90" height="30" as="geometry" />
        </mxCell>
        <mxCell id="6aO2fSTvK_ncb3qxgh-z-129" value="varchar" style="shape=partialRectangle;connectable=0;fillColor=none;top=0;left=0;bottom=0;right=0;align=center;spacingLeft=6;fontStyle=0;overflow=hidden;" vertex="1" parent="6aO2fSTvK_ncb3qxgh-z-127">
          <mxGeometry x="90" width="90" height="30" as="geometry" />
        </mxCell>
        <mxCell id="6aO2fSTvK_ncb3qxgh-z-130" style="shape=partialRectangle;collapsible=0;dropTarget=0;pointerEvents=0;fillColor=none;top=0;left=0;bottom=1;right=0;points=[[0,0.5],[1,0.5]];portConstraint=eastwest;" vertex="1" parent="6aO2fSTvK_ncb3qxgh-z-114">
          <mxGeometry y="180" width="180" height="30" as="geometry" />
        </mxCell>
        <mxCell id="6aO2fSTvK_ncb3qxgh-z-131" value="artist_id" style="shape=partialRectangle;connectable=0;fillColor=none;top=0;left=0;bottom=0;right=0;fontStyle=0;overflow=hidden;" vertex="1" parent="6aO2fSTvK_ncb3qxgh-z-130">
          <mxGeometry width="90" height="30" as="geometry" />
        </mxCell>
        <mxCell id="6aO2fSTvK_ncb3qxgh-z-132" value="varchar" style="shape=partialRectangle;connectable=0;fillColor=none;top=0;left=0;bottom=0;right=0;align=center;spacingLeft=6;fontStyle=0;overflow=hidden;" vertex="1" parent="6aO2fSTvK_ncb3qxgh-z-130">
          <mxGeometry x="90" width="90" height="30" as="geometry" />
        </mxCell>
        <mxCell id="6aO2fSTvK_ncb3qxgh-z-133" style="shape=partialRectangle;collapsible=0;dropTarget=0;pointerEvents=0;fillColor=none;top=0;left=0;bottom=1;right=0;points=[[0,0.5],[1,0.5]];portConstraint=eastwest;" vertex="1" parent="6aO2fSTvK_ncb3qxgh-z-114">
          <mxGeometry y="210" width="180" height="30" as="geometry" />
        </mxCell>
        <mxCell id="6aO2fSTvK_ncb3qxgh-z-134" value="session_id" style="shape=partialRectangle;connectable=0;fillColor=none;top=0;left=0;bottom=0;right=0;fontStyle=0;overflow=hidden;" vertex="1" parent="6aO2fSTvK_ncb3qxgh-z-133">
          <mxGeometry width="90" height="30" as="geometry" />
        </mxCell>
        <mxCell id="6aO2fSTvK_ncb3qxgh-z-135" value="int" style="shape=partialRectangle;connectable=0;fillColor=none;top=0;left=0;bottom=0;right=0;align=center;spacingLeft=6;fontStyle=0;overflow=hidden;" vertex="1" parent="6aO2fSTvK_ncb3qxgh-z-133">
          <mxGeometry x="90" width="90" height="30" as="geometry" />
        </mxCell>
        <mxCell id="6aO2fSTvK_ncb3qxgh-z-137" style="shape=partialRectangle;collapsible=0;dropTarget=0;pointerEvents=0;fillColor=none;top=0;left=0;bottom=1;right=0;points=[[0,0.5],[1,0.5]];portConstraint=eastwest;" vertex="1" parent="6aO2fSTvK_ncb3qxgh-z-114">
          <mxGeometry y="240" width="180" height="30" as="geometry" />
        </mxCell>
        <mxCell id="6aO2fSTvK_ncb3qxgh-z-138" value="location" style="shape=partialRectangle;connectable=0;fillColor=none;top=0;left=0;bottom=0;right=0;fontStyle=0;overflow=hidden;" vertex="1" parent="6aO2fSTvK_ncb3qxgh-z-137">
          <mxGeometry width="90" height="30" as="geometry" />
        </mxCell>
        <mxCell id="6aO2fSTvK_ncb3qxgh-z-139" value="varchar" style="shape=partialRectangle;connectable=0;fillColor=none;top=0;left=0;bottom=0;right=0;align=center;spacingLeft=6;fontStyle=0;overflow=hidden;" vertex="1" parent="6aO2fSTvK_ncb3qxgh-z-137">
          <mxGeometry x="90" width="90" height="30" as="geometry" />
        </mxCell>
        <mxCell id="6aO2fSTvK_ncb3qxgh-z-140" style="shape=partialRectangle;collapsible=0;dropTarget=0;pointerEvents=0;fillColor=none;top=0;left=0;bottom=1;right=0;points=[[0,0.5],[1,0.5]];portConstraint=eastwest;" vertex="1" parent="6aO2fSTvK_ncb3qxgh-z-114">
          <mxGeometry y="270" width="180" height="30" as="geometry" />
        </mxCell>
        <mxCell id="6aO2fSTvK_ncb3qxgh-z-141" value="user_agent" style="shape=partialRectangle;connectable=0;fillColor=none;top=0;left=0;bottom=0;right=0;fontStyle=0;overflow=hidden;" vertex="1" parent="6aO2fSTvK_ncb3qxgh-z-140">
          <mxGeometry width="90" height="30" as="geometry" />
        </mxCell>
        <mxCell id="6aO2fSTvK_ncb3qxgh-z-142" value="varchar" style="shape=partialRectangle;connectable=0;fillColor=none;top=0;left=0;bottom=0;right=0;align=center;spacingLeft=6;fontStyle=0;overflow=hidden;" vertex="1" parent="6aO2fSTvK_ncb3qxgh-z-140">
          <mxGeometry x="90" width="90" height="30" as="geometry" />
        </mxCell>
        <mxCell id="6aO2fSTvK_ncb3qxgh-z-143" style="edgeStyle=orthogonalEdgeStyle;rounded=0;orthogonalLoop=1;jettySize=auto;html=1;entryX=0;entryY=0.5;entryDx=0;entryDy=0;fontSize=15;" edge="1" parent="1" source="6aO2fSTvK_ncb3qxgh-z-57" target="6aO2fSTvK_ncb3qxgh-z-121">
          <mxGeometry relative="1" as="geometry" />
        </mxCell>
        <mxCell id="6aO2fSTvK_ncb3qxgh-z-144" style="edgeStyle=orthogonalEdgeStyle;rounded=0;orthogonalLoop=1;jettySize=auto;html=1;entryX=0;entryY=0.5;entryDx=0;entryDy=0;fontSize=15;" edge="1" parent="1" source="6aO2fSTvK_ncb3qxgh-z-61" target="6aO2fSTvK_ncb3qxgh-z-127">
          <mxGeometry relative="1" as="geometry" />
        </mxCell>
        <mxCell id="6aO2fSTvK_ncb3qxgh-z-145" style="edgeStyle=orthogonalEdgeStyle;rounded=0;orthogonalLoop=1;jettySize=auto;html=1;entryX=1;entryY=0.5;entryDx=0;entryDy=0;fontSize=15;" edge="1" parent="1" source="6aO2fSTvK_ncb3qxgh-z-77" target="6aO2fSTvK_ncb3qxgh-z-118">
          <mxGeometry relative="1" as="geometry" />
        </mxCell>
        <mxCell id="6aO2fSTvK_ncb3qxgh-z-146" style="edgeStyle=orthogonalEdgeStyle;rounded=0;orthogonalLoop=1;jettySize=auto;html=1;entryX=1;entryY=0.5;entryDx=0;entryDy=0;fontSize=15;" edge="1" parent="1" source="6aO2fSTvK_ncb3qxgh-z-99" target="6aO2fSTvK_ncb3qxgh-z-130">
          <mxGeometry relative="1" as="geometry" />
        </mxCell>
      </root>
    </mxGraphModel>
  </diagram>
</mxfile>
